<svg xmlns="http://www.w3.org/2000/svg" viewBox="0 0 32 32" width="32" height="32">
  <defs>
    <linearGradient id="summai-grad" x1="0%" y1="0%" x2="100%" y2="100%">
      <stop offset="0%" stop-color="#34d399" />
      <stop offset="50%" stop-color="#10b981" />
      <stop offset="100%" stop-color="#06b6d4" />
    </linearGradient>
  </defs>
  <rect width="32" height="32" rx="9" fill="url(#summai-grad)" />
  <g transform="translate(4, 4)">
    <path d="M2 13a2 2 0 0 0 2-2V7a2 2 0 0 1 4 0v13a2 2 0 0 0 4 0V4a2 2 0 0 1 4 0v13a2 2 0 0 0 4 0v-4a2 2 0 0 1 2-2" 
          fill="none" 
          stroke="#020617" 
          stroke-width="2.5" 
          stroke-linecap="round" 
          stroke-linejoin="round" />
  </g>
</svg>
